HIERARCHY
ROOT Hips
{
	OFFSET 0.000000 0.000000 0.000000
	CHANNELS 6 Xposition Yposition Zposition Zrotation Yrotation Xrotation 
	JOINT LHipJoint
	{
		OFFSET 0.000000 0.000000 0.000000
		CHANNELS 3 Zrotation Yrotation Xrotation
		JOINT LeftUpLeg
		{
			OFFSET 8.178360 -10.767780 5.035740
			CHANNELS 3 Zrotation Yrotation Xrotation
			JOINT LeftLeg
			{
				OFFSET 14.688660 -40.356780 0.000000
				CHANNELS 3 Zrotation Yrotation Xrotation
				JOINT LeftFoot
				{
					OFFSET 15.373200 -42.237540 0.000000
					CHANNELS 3 Zrotation Yrotation Xrotation
					JOINT LeftToeBase
					{
						OFFSET 0.945840 -2.598660 13.935300
						CHANNELS 3 Zrotation Yrotation Xrotation
						End Site
						{
							OFFSET 0.000000 0.000000 0.000000
						}
					}
				}
			}
		}
	}
	JOINT RHipJoint
	{
		OFFSET 0.000000 0.000000 0.000000
		CHANNELS 3 Zrotation Yrotation Xrotation
		JOINT RightUpLeg
		{
			OFFSET -7.833120 -10.767780 5.035740
			CHANNELS 3 Zrotation Yrotation Xrotation
			JOINT RightLeg
			{
				OFFSET -15.255180 -41.913300 0.000000
				CHANNELS 3 Zrotation Yrotation Xrotation
				JOINT RightFoot
				{
					OFFSET -15.409560 -42.337380 0.000000
					CHANNELS 3 Zrotation Yrotation Xrotation
					JOINT RightToeBase
					{
						OFFSET -0.988380 -2.715540 14.178900
						CHANNELS 3 Zrotation Yrotation Xrotation
						End Site
						{
							OFFSET 0.000000 0.000000 0.000000
						}
					}
				}
			}
		}
	}
	JOINT LowerBack
	{
		OFFSET 0.000000 0.000000 0.000000
		CHANNELS 3 Zrotation Yrotation Xrotation
		JOINT Spine
		{
			OFFSET 0.169620 12.213540 -1.160280
			CHANNELS 3 Zrotation Yrotation Xrotation
			JOINT Spine1
			{
				OFFSET 0.340320 12.293100 -0.256500
				CHANNELS 3 Zrotation Yrotation Xrotation
				JOINT Neck
				{
					OFFSET 0.000000 0.000000 0.000000
					CHANNELS 3 Zrotation Yrotation Xrotation
					JOINT Neck1
					{
						OFFSET -0.325020 10.477440 1.032120
						CHANNELS 3 Zrotation Yrotation Xrotation
						JOINT Head
						{
							OFFSET 0.624420 10.568160 -0.743820
							CHANNELS 3 Zrotation Yrotation Xrotation
							End Site
							{
								OFFSET 0.000000 0.000000 0.000000
							}
						}
					}
				}
				JOINT LeftShoulder
				{
					OFFSET 0.000000 0.000000 0.000000
					CHANNELS 3 Zrotation Yrotation Xrotation
					JOINT LeftArm
					{
						OFFSET 20.174460 7.205340 -1.867260
						CHANNELS 3 Zrotation Yrotation Xrotation
						JOINT LeftForeArm
						{
							OFFSET 29.898000 -0.000000 -0.000000
							CHANNELS 3 Zrotation Yrotation Xrotation
							JOINT LeftHand
							{
								OFFSET 20.901360 -0.000000 -0.000000
								CHANNELS 3 Zrotation Yrotation Xrotation
								JOINT LeftFingerBase
								{
									OFFSET 0.000000 0.000000 0.000000
									CHANNELS 3 Zrotation Yrotation Xrotation
									JOINT LeftHandIndex1
									{
										OFFSET 4.291560 -0.000000 -0.000000
										CHANNELS 3 Zrotation Yrotation Xrotation
										End Site
										{
											OFFSET 0.000000 0.000000 0.000000
										}
									}
								}
								JOINT LThumb
								{
									OFFSET 0.000000 0.000000 0.000000
									CHANNELS 3 Zrotation Yrotation Xrotation
									End Site
									{
										OFFSET 0.000000 0.000000 0.000000
									}
								}
							}
						}
					}
				}
				JOINT RightShoulder
				{
					OFFSET 0.000000 0.000000 0.000000
					CHANNELS 3 Zrotation Yrotation Xrotation
					JOINT RightArm
					{
						OFFSET -18.819600 8.244300 -2.427900
						CHANNELS 3 Zrotation Yrotation Xrotation
						JOINT RightForeArm
						{
							OFFSET -31.451400 -0.000000 -0.000000
							CHANNELS 3 Zrotation Yrotation Xrotation
							JOINT RightHand
							{
								OFFSET -20.665020 -0.000000 -0.000000
								CHANNELS 3 Zrotation Yrotation Xrotation
								JOINT RightFingerBase
								{
									OFFSET 0.000000 0.000000 0.000000
									CHANNELS 3 Zrotation Yrotation Xrotation
									JOINT RightHandIndex1
									{
										OFFSET -3.735180 -0.000000 -0.000000
										CHANNELS 3 Zrotation Yrotation Xrotation
										End Site
										{
											OFFSET 0.000000 0.000000 0.000000
										}
									}
								}
								JOINT RThumb
								{
									OFFSET 0.000000 0.000000 0.000000
									CHANNELS 3 Zrotation Yrotation Xrotation
									End Site
									{
										OFFSET 0.000000 0.000000 0.000000
									}
								}
							}
						}
					}
				}
			}
		}
	}
}
MOTION
Frames:	10
Frame Time:	0.0333333
93.183234 107.259060 -68.676666 -111.731257 -88.205311 112.644093 -2.537855 -0.000578 0.527797 -14.066165 -8.482743 -23.811951 2.414718 11.676019 34.965661 -0.058498 0.711658 -2.147645 3.769800 -11.847600 -35.194900 1.456912 -1.309847 1.787483 25.616421 2.419006 -2.056247 -1.111431 -7.402514 22.753128 -1.427311 5.099645 -6.737994 -0.467800 -4.386700 12.167300 3.229377 1.391828 8.209291 1.333829 2.255876 1.490878 -2.127622 1.073618 -2.993003 -11.026619 -4.741266 -17.338420 6.303735 -5.341953 21.945565 4.233100 -3.181100 15.374800 -6.621941 -0.728004 -1.634887 -83.593548 3.939403 16.777801 14.786043 -21.039881 -3.233071 -1.637176 -2.143248 7.876764 21.608813 20.806439 9.439000 -7.125000 0.000000 0.000000 -6.563300 54.728100 -1.573500 5.329693 1.384171 -1.104172 84.776567 -2.488344 11.235455 -14.743590 21.971130 -3.049994 0.420873 -0.223170 7.881352 -16.294044 8.842813 -2.691900 7.125000 0.000000 0.000000 7.305600 -20.630600 4.297600 
92.031018 107.321064 -68.874120 -119.997162 -87.793020 121.091685 -2.738165 0.048121 0.406636 -13.095700 -11.251708 -23.364452 1.245440 10.163159 29.784497 -0.507906 3.464136 -1.662928 2.241500 -9.352100 -26.902900 1.573205 -1.261600 1.841330 25.868769 2.323244 -0.642812 -0.861333 -6.789721 20.998279 -1.372565 4.936655 -6.401895 -0.514700 -4.598200 12.765900 3.630010 1.426805 8.528876 1.327460 2.341330 1.527981 -2.365714 1.141196 -3.079041 -10.895589 -4.836157 -17.551495 6.047880 -5.412829 21.663299 4.068900 -3.204800 15.287000 -6.655978 -0.675807 -1.639998 -83.765159 4.459114 16.139361 14.342444 -20.406693 -3.023188 -1.603244 -2.166518 9.059146 20.440742 21.308596 9.074600 -7.125000 0.000000 0.000000 -8.079900 55.048800 -2.003500 5.330433 1.367354 -1.126022 84.724526 -3.079730 11.620255 -15.079068 22.455374 -3.198817 0.392437 -0.177297 6.438545 -15.189786 8.368504 -2.360100 7.125000 0.000000 0.000000 8.137300 -21.207400 4.689200 
90.771648 107.184408 -69.124548 -126.031251 -87.550980 127.345803 -2.898310 -0.011552 0.337781 -12.978858 -10.909806 -24.007040 0.189978 8.495625 24.462694 -0.577648 3.882970 -0.199472 3.162800 -10.954100 -32.125300 1.649630 -1.194140 1.861059 26.019399 2.129519 0.117051 -0.792411 -6.580250 20.435443 -1.404002 5.019573 -6.690410 -0.469900 -4.396400 12.194700 3.646943 1.460026 8.751764 1.317880 2.378207 1.576564 -2.389836 1.186223 -3.110951 -10.683889 -4.757814 -17.634742 5.765779 -5.254879 21.208590 3.910700 -3.125500 15.038400 -6.693271 -0.642927 -1.633508 -83.774582 4.817752 15.885697 13.815545 -19.638665 -2.791177 -1.465235 -2.148897 10.547245 18.021438 21.134832 7.852800 -7.125000 0.000000 0.000000 -10.703500 54.362600 -2.484100 5.352559 1.344535 -1.140786 84.711567 -3.340242 11.507531 -15.174734 22.602236 -3.246618 0.359531 -0.161926 6.513729 -14.278637 8.165569 -2.155500 7.125000 0.000000 0.000000 8.825100 -21.468900 5.041700 
89.355762 107.074248 -69.332838 -123.962060 -87.155385 125.307658 -3.018453 -0.114713 0.248799 -12.533260 -10.904646 -24.364507 -0.515904 7.052560 20.186429 -0.449841 3.250308 1.691204 3.354300 -11.247600 -33.119700 1.690337 -1.233902 1.921915 26.531157 1.910798 1.528866 -0.639968 -6.179445 19.279582 -1.351925 4.713800 -6.832038 -0.394100 -4.031100 11.164200 3.946512 1.359632 9.121939 1.474963 2.293017 1.635898 -2.270501 1.138995 -3.206473 -10.827643 -4.615790 -17.987102 5.693620 -4.915808 21.184358 3.954800 -3.003600 15.081700 -6.732845 -0.623249 -1.634798 -84.309144 5.064469 14.664151 13.368702 -18.955575 -2.580067 -1.558176 -2.089675 11.458111 18.518109 20.885055 8.009800 -7.125000 0.000000 0.000000 -10.014700 54.188200 -2.278900 5.388173 1.322172 -1.153229 84.505793 -3.422789 11.156495 -15.155081 22.572570 -3.239388 0.335489 -0.145950 6.754151 -13.596077 7.813669 -1.957500 7.125000 0.000000 0.000000 9.350000 -21.870200 5.263000 
87.791178 106.954452 -69.503808 -125.963389 -86.553284 127.418013 -2.968102 -0.304421 0.218428 -12.986537 -7.806688 -26.013900 -0.925438 6.062640 17.334405 0.235156 -0.686711 2.821796 2.834700 -10.422500 -30.356100 1.719873 -1.229781 1.951815 26.902260 1.198508 2.836304 -0.492151 -5.701363 17.948994 -1.440498 5.378999 -6.418461 -0.396500 -4.042900 11.197400 4.400987 1.427714 9.284467 1.469608 2.431724 1.710115 -2.563103 1.222686 -3.136057 -10.351805 -4.460469 -18.177733 5.452505 -4.798611 21.085258 3.769300 -2.918000 15.029000 -6.761307 -0.622351 -1.620863 -84.264842 5.129856 13.826539 12.966574 -18.356625 -2.403412 -1.538651 -2.096341 12.184668 17.736583 21.093907 7.718300 -7.125000 0.000000 0.000000 -10.958000 54.259000 -2.516400 5.418084 1.295646 -1.163631 84.571870 -3.389897 10.914077 -15.027391 22.401895 -3.188625 0.318177 -0.137324 6.838502 -13.076630 7.606484 -1.828900 7.125000 0.000000 0.000000 9.748200 -22.106900 5.440200 
86.036970 106.781076 -69.649488 -140.225649 -86.168272 142.022913 -3.018078 -0.254240 0.230660 -13.905520 -6.424307 -27.010515 -1.216762 5.376363 15.211255 0.214872 -0.390049 3.184561 3.141800 -10.921200 -32.014500 1.704653 -1.093858 1.926877 26.437713 0.765912 4.084013 -0.379644 -5.283038 16.856025 -1.498600 5.705913 -6.419288 -0.279600 -3.401200 9.397800 3.792937 1.686636 9.062414 1.465385 2.660837 1.746597 -2.242769 1.383452 -3.001504 -10.509022 -4.388573 -18.142787 5.475513 -4.601575 20.809545 3.830500 -2.840900 14.860300 -6.779140 -0.557082 -1.633989 -84.592906 5.362447 13.731297 12.814265 -18.119961 -2.338622 -1.513738 -2.109929 12.291495 17.295648 21.122942 7.525000 -7.125000 0.000000 0.000000 -11.455800 54.210300 -2.619300 5.447642 1.314726 -1.141687 84.216235 -3.144914 10.657520 -14.637214 21.853112 -3.023332 0.313575 -0.164605 6.822269 -12.953289 8.185454 -1.952900 7.125000 0.000000 0.000000 9.810500 -21.498100 5.613800 
84.129852 106.753986 -69.758448 -144.383083 -85.368960 146.440132 -3.031961 -0.203733 0.201746 -13.490151 -6.751518 -27.043231 -1.306670 5.167742 14.508785 -0.074497 1.525219 3.605009 2.267300 -9.402000 -27.061000 1.665879 -1.089631 1.947167 26.524432 0.394467 5.723203 -0.227616 -4.725964 15.332503 -1.551546 6.298081 -5.749320 -0.315400 -3.610400 9.983000 4.039319 1.950863 8.896240 1.363366 3.017959 1.770962 -2.611951 1.582882 -2.830626 -10.075348 -4.306012 -18.419238 5.481962 -4.634735 20.949208 3.752600 -2.799800 14.979100 -6.780041 -0.541776 -1.637292 -84.358025 5.438001 13.865751 12.741801 -18.024984 -2.313010 -1.533406 -2.038912 12.491504 17.592592 20.469788 7.447300 -7.125000 0.000000 0.000000 -10.826700 53.550500 -2.297500 5.453823 1.308527 -1.139825 84.592871 -2.953624 10.051713 -14.436028 21.531884 -2.920275 0.407399 -0.178210 7.127498 -15.463565 7.888099 -2.269500 7.125000 0.000000 0.000000 7.941100 -21.693100 4.485700 
82.046352 106.688370 -69.814434 -149.202208 -84.403582 151.626250 -3.052043 -0.137729 0.218049 -13.332810 -6.821549 -27.008864 -1.285474 5.285802 14.725351 -0.330369 3.172633 4.315989 2.061700 -8.993300 -25.774500 1.589537 -1.090280 1.958823 26.322193 -0.156527 7.126586 -0.117865 -4.228946 14.005103 -1.662186 7.454989 -4.594266 -0.159500 -2.572800 7.091700 4.011066 2.152184 8.672766 1.396194 3.269165 1.671440 -2.544679 1.711563 -2.923093 -10.708419 -4.298449 -18.377910 6.016622 -4.473404 21.055577 4.157100 -2.753700 15.062900 -6.766647 -0.467996 -1.671851 -84.622127 5.886106 13.704877 12.954772 -18.356977 -2.398077 -1.552328 -2.099296 11.959060 18.022102 20.989652 7.820500 -7.125000 0.000000 0.000000 -10.600800 54.213400 -2.421100 5.435924 1.342163 -1.130874 84.498448 -3.134123 10.431834 -14.339880 21.406179 -2.886928 0.386653 -0.193406 7.486517 -15.009168 8.251621 -2.302100 7.125000 0.000000 0.000000 8.271300 -21.325600 4.745700 
79.785258 106.513188 -69.786144 -153.779475 -83.499709 156.762249 -3.087075 -0.073811 0.287426 -13.421064 -6.592886 -26.839940 -1.197062 5.567912 15.480101 -0.296681 3.001829 4.616345 2.024100 -8.916100 -25.533200 1.503015 -1.079262 1.945332 25.899868 -0.738239 7.801007 -0.123500 -4.143909 13.821009 -1.771874 8.375961 -4.115116 -0.060100 -1.582400 4.352900 3.987362 2.492383 8.292301 1.282840 3.705776 1.492475 -2.788476 1.935337 -3.040728 -11.026531 -4.442042 -18.551158 6.362740 -4.613241 21.251455 4.377100 -2.815700 15.270500 -6.762365 -0.425148 -1.695430 -84.513686 6.058893 13.783635 13.066335 -18.530971 -2.447921 -1.481309 -2.143485 11.427060 17.435470 21.127821 7.590000 -7.125000 0.000000 0.000000 -11.323400 54.253400 -2.600400 5.401322 1.376741 -1.138365 84.888925 -3.430605 10.443656 -14.392977 21.470423 -2.904290 0.414775 -0.184055 7.477989 -15.721029 7.874326 -2.306200 7.125000 0.000000 0.000000 7.748600 -21.693300 4.374900 
77.246652 106.406634 -69.732564 -158.778950 -82.405440 162.247205 -3.151248 -0.010854 0.446863 -13.889522 -5.580501 -26.417664 -1.073081 5.880022 16.439723 0.160448 0.152083 5.080891 2.121500 -9.114700 -26.154700 1.381906 -1.077795 1.897743 25.306813 -0.593756 8.765851 -0.161416 -4.199674 14.021544 -1.849717 9.333258 -3.176586 -0.065800 -1.655100 4.553300 3.961774 2.831141 7.695244 1.143114 4.131839 1.341260 -3.102048 2.158347 -3.009846 -11.127549 -4.316236 -18.566944 6.534997 -4.430566 21.325318 4.521600 -2.740100 15.306700 -6.744009 -0.394737 -1.717272 -84.551590 6.306404 13.091711 13.280955 -18.874933 -2.532975 -1.545298 -2.163571 11.299476 18.314993 21.497915 8.128300 -7.125000 0.000000 0.000000 -10.531100 54.834700 -2.565000 5.367807 1.377311 -1.151841 85.008607 -3.821144 10.957671 -14.460727 21.590533 -2.941135 0.395643 -0.187004 7.257328 -15.218230 8.147552 -2.305600 7.125000 0.000000 0.000000 8.118200 -21.428700 4.636900 
